<svg id="Layer_1" xmlns="http://www.w3.org/2000/svg" viewBox="0 0 512 512">
  <style>
    .st2{fill:#ed8936}.st8{opacity:.6;fill:none;stroke:#f3fbff;stroke-width:9;stroke-linecap:round;stroke-linejoin:round;stroke-miterlimit:10;enable-background:new}
  </style>
  <path d="M275.9 285.9v138.9l82.2 41.8c3.6 1.2 5.4 3.6 5.4 7.5 0 19.8-48.1 35.9-107.5 35.9s-107.5-16.1-107.5-35.9c0-4 2-6.3 5.4-7.5l82.2-41.8V285.9L42.9 110.8s-1-1-1-4c0-6.8 8-13.2 22.4-18.9C98.8 74 170 64.6 252.1 64.6h8c87.2 0 162.1 10.8 193.8 26 10.5 5.1 16.2 10.5 16.2 16.3 0 3-1 4-1 4l-193.2 175z" fill="#a0aec0"/>
  <path d="M417.4 124L273.8 256.2h.1s-.1 0-.1.1c-17.8 17.8-35.8-.2-35.8-.2L95 117.4 64.3 87.7C98.8 73.9 170 64.5 252.1 64.5h8c87.2 0 162.1 10.8 193.9 26L417.4 124z" fill="#cbd5e0"/>
  <path class="st2" d="M375.3 4c-12.5-7.7-19.8 5.9-19.8 5.9s-88.9 167.4-102.7 192.9c-14 25.5-8.9 31.2-8.9 31.2s6.9 1 21.9-23.9S380.3 23.9 380.3 23.9s7.9-13-5-19.9z"/>
  <path class="st2" d="M375.3 4c-12.5-7.7-19.8 5.9-19.8 5.9s-88.9 167.4-102.7 192.9c-14 25.5-8.9 31.2-8.9 31.2s6.9 1 21.9-23.9S380.3 23.9 380.3 23.9s7.9-13-5-19.9z"/>
  <path d="M380.3 23.9s-99.6 161.4-114.5 186.3c-15 24.9-21.9 23.9-21.9 23.9s-1.1-1.2-.9-5.3c2.8-1.1 9.5-5.6 20.3-23.5C278.3 180.4 377.8 19 377.8 19s3.5-5.6 2.1-11.4c6.1 7 .4 16.3.4 16.3z" fill="#c96f32"/>
  <ellipse transform="matrix(.9899 -.1415 .1415 .9899 -18.4846 43.2493)" cx="294.9" cy="151.6" rx="54.8" ry="32.9" fill="#5dba7e"/>
  <path d="M273.8 256.2c-17.8 17.9-35.9-.2-35.9-.2L75.3 98.9c49.8 14.5 213.1 57.2 349 17.3l-150.5 140z" opacity=".6" fill="#d9e4ed"/>
  <ellipse transform="matrix(.9959 -.09053 .09053 .9959 -13.2554 23.0973)" cx="248" cy="157.7" rx="5.9" ry="11.3" fill="#9ac950"/>
  <ellipse transform="matrix(.9959 -.09054 .09054 .9959 -13.2554 23.0974)" cx="248" cy="157.7" rx="4.5" ry="8.5" fill="#bcff64"/>
  <path class="st8" d="M199.5 196.3l13.8 13.1M129.2 130.2l50.9 48"/>
</svg>
