<svg xmlns="http://www.w3.org/2000/svg" viewBox="0 0 2048 512">
  <style>
    .st3{fill:#a0aec0}.st4{fill:#cbd5e0}.st5{fill:#ed8936}.st15{opacity:.6;fill:none;stroke:#f3fbff;stroke-width:9;stroke-linecap:round;stroke-linejoin:round;stroke-miterlimit:10}
  </style>
  <g id="Layer_2">
    <path class="st3" d="M-488 285.9v139.5l82.5 42.1c3.6 1.3 5.5 3.6 5.5 7.6 0 19.9-48.3 36-108 36s-108-16.1-108-36c0-4 1.9-6.4 5.5-7.6l82.5-42.1V285.9L-722 110s-1-1-1-4c0-6.9 8.1-13.3 22.5-19.1C-665.8 73-594.4 63.5-512 63.5h8c87.6 0 162.8 10.8 194.7 26 10.5 5 16.3 10.6 16.3 16.4 0 3-1 4-1 4l-194 176z"/>
    <path class="st4" d="M-309.3 89.6L-490.1 256v.1c-18.9 9.9-36-.3-36-.3L-700.5 86.9C-665.8 73-594.4 63.5-512 63.5h8c87.6.1 162.8 10.8 194.7 26.1z"/>
    <path class="st4" d="M-490 256s-.1 0-.1.1c-17.9 17.9-36-.3-36-.3l36 .2h.1z"/>
    <path class="st5" d="M-387 4c-12.6-7.7-19.9 5.9-19.9 5.9S-496.1 178.1-510 203.7c-14 25.6-9 31.3-9 31.3s7 1 22-24S-382 24-382 24s8-13-5-20z"/>
    <ellipse cx="-469" cy="151" rx="55" ry="33" fill="#68d391"/>
    <path class="st3" d="M282.1 280.1v112.2l66.4 33.8c2.9 1 4.4 2.9 4.4 6.1 0 16-38.9 29-86.9 29s-86.9-13-86.9-29c0-3.2 1.6-5.1 4.4-6.1l66.4-33.8V280.1L93.8 138.6s-.8-.8-.8-3.2c0-5.5 6.5-10.7 18.1-15.3 27.9-11.2 85.4-18.8 151.7-18.8h6.4c70.5 0 131 8.7 156.6 21 8.5 4.1 13.1 8.5 13.1 13.2 0 2.4-.8 3.2-.8 3.2l-156 141.4z"/>
    <path class="st4" d="M396.4 149.3l-116 106.8h.1s-.1 0-.1.1c-14.4 14.4-28.9-.2-28.9-.2L135.9 144l-24.8-24c27.9-11.2 85.4-18.8 151.7-18.8h6.4c70.5 0 131 8.7 156.7 21l-29.5 27.1z"/>
    <path class="st5" d="M362.4 52.3c-10.1-6.2-16 4.8-16 4.8s-71.8 135.3-83 155.9c-11.3 20.6-7.2 25.2-7.2 25.2s5.6.8 17.7-19.3 92.5-150.5 92.5-150.5 6.4-10.5-4-16.1z"/>
    <path class="st5" d="M362.4 52.3c-10.1-6.2-16 4.8-16 4.8s-71.8 135.3-83 155.9c-11.3 20.6-7.2 25.2-7.2 25.2s5.6.8 17.7-19.3 92.5-150.5 92.5-150.5 6.4-10.5-4-16.1z"/>
    <path d="M366.4 68.4s-80.5 130.4-92.5 150.5c-12.1 20.1-17.7 19.3-17.7 19.3s-.9-1-.7-4.3c2.3-.9 7.7-4.5 16.4-19 12.1-20.1 92.5-150.5 92.5-150.5s2.8-4.5 1.7-9.2c4.9 5.7.3 13.2.3 13.2z" fill="#c96f32"/>
    <ellipse transform="matrix(.9899 -.1415 .1415 .9899 -21.29 43.8163)" cx="297.4" cy="171.6" rx="44.3" ry="26.6" fill="#5dba7e"/>
    <text transform="translate(529.5078 389.5913)" font-size="335" font-family="Candara" fill="#96a3b2">
      toothpick
    </text>
    <path d="M280.4 256.1c-14.4 14.5-29-.2-29-.2L120 129c40.2 11.7 172.2 46.2 282 14L280.4 256.1z" opacity=".6" fill="#d9e4ed"/>
    <ellipse transform="matrix(.9959 -.09054 .09054 .9959 -14.9138 24.2189)" cx="259.5" cy="176.5" rx="4.8" ry="9.1" fill="#9ac950"/>
    <ellipse transform="matrix(.9959 -.09054 .09054 .9959 -14.9138 24.2189)" cx="259.5" cy="176.5" rx="3.6" ry="6.9" fill="#bcff64"/>
    <path class="st15" d="M220.3 207.7l11.2 10.6M163.5 154.3l41.2 38.8"/>
  </g>
</svg>
